<svg width="24" height="24" viewBox="0 0 24 24" fill="none" xmlns="http://www.w3.org/2000/svg">
<path d="M8.99247 15.3395L8.6269 17.5108C8.57707 17.8076 8.69887 18.1067 8.94188 18.2839C9.18527 18.4607 9.50846 18.4843 9.77438 18.345L11.7265 17.326L13.6786 18.3452C13.7941 18.4051 13.9207 18.4353 14.0459 18.4353C14.2099 18.4353 14.3735 18.3839 14.5115 18.2841C14.7547 18.1069 14.8769 17.8078 14.8267 17.511L14.4615 15.3397L16.0333 13.7978C16.2483 13.5873 16.3248 13.273 16.2326 12.9871C16.14 12.7013 15.8922 12.4921 15.5948 12.4482L13.4167 12.1252L12.4357 10.1534C12.3026 9.88425 12.027 9.71378 11.7263 9.71378C11.4262 9.71378 11.1507 9.88425 11.0165 10.1534L10.0365 12.1252L7.85835 12.448C7.56036 12.4919 7.31372 12.7011 7.22094 12.9869C7.12817 13.2729 7.20453 13.5875 7.41986 13.7976L8.99247 15.3395Z" fill="#0866FF"/>
<path d="M21.0876 2.53301H18.5935V1.14958C18.5935 0.514658 18.0789 0 17.4438 0H17.2615C16.6265 0 16.1121 0.514658 16.1121 1.14958V2.53301H7.3123V1.14958C7.3123 0.514658 6.79764 0 6.16291 0H5.98041C5.34549 0 4.83103 0.514658 4.83103 1.14958V2.53301H2.36597C1.06158 2.53301 0 3.5942 0 4.89898V21.4606C0 22.7646 1.06158 23.8266 2.36597 23.8266H21.0878C22.392 23.8266 23.4538 22.7648 23.4538 21.4606V4.89898C23.4536 3.5942 22.3918 2.53301 21.0876 2.53301ZM20.7789 21.1519H2.67465V8.25972H20.7789V21.1519Z" fill="#0866FF"/>
</svg>
