<svg width="18" height="18" viewBox="0 0 18 18" fill="none" xmlns="http://www.w3.org/2000/svg">
<path d="M7.41736 5.44855C3.34677 5.44855 3.70205e-05 8.24776 3.70205e-05 11.6886C3.70205e-05 13.064 0.533534 14.4618 1.51191 15.5452L0.130318 17.124C-0.00562278 17.2796 -0.0385972 17.5005 0.0474246 17.6889C0.132919 17.8774 0.32036 17.9984 0.527347 17.9984H7.94467C10.9502 17.9984 14.8347 15.4104 14.8347 11.6886C14.8347 8.24776 11.4879 5.44855 7.41736 5.44855ZM4.21841 12.6551C3.63704 12.6551 3.16383 12.1819 3.16383 11.6005C3.16383 11.0192 3.63707 10.5459 4.21841 10.5459C4.79975 10.5459 5.273 11.0192 5.273 11.6005C5.27303 12.1819 4.79979 12.6551 4.21841 12.6551ZM7.41736 12.6551C6.83598 12.6551 6.36277 12.1819 6.36277 11.6005C6.36277 11.0192 6.83601 10.5459 7.41736 10.5459C7.9987 10.5459 8.47194 11.0192 8.47194 11.6005C8.47194 12.1819 7.99873 12.6551 7.41736 12.6551ZM10.6163 12.6551C10.0349 12.6551 9.56172 12.1819 9.56172 11.6005C9.56172 11.0192 10.035 10.5459 10.6163 10.5459C11.1976 10.5459 11.6709 11.0192 11.6709 11.6005C11.6709 12.1819 11.1977 12.6551 10.6163 12.6551Z" fill="#1F74FE"/>
<path d="M17.8711 10.7298L16.6296 9.28126C17.5158 8.28127 17.9983 7.06184 17.9983 5.80027C17.9983 2.60199 14.9231 0 11.1434 0C7.72556 0 4.8218 2.12995 4.30908 4.90223C5.26274 4.57818 6.33223 4.39397 7.41719 4.39397C12.0348 4.39397 15.8285 7.61917 15.884 11.6005H17.471C17.9214 11.6006 18.1633 11.0702 17.8711 10.7298Z" fill="#1F74FE"/>
</svg>
