<svg width="21" height="21" viewBox="0 0 21 21" fill="none" xmlns="http://www.w3.org/2000/svg">
<path d="M20.2121 12.1753L18.8076 10.5367C19.8098 9.40606 20.3556 8.02696 20.3556 6.59975C20.3556 2.90202 16.7681 6.10352e-05 12.5633 6.10352e-05C8.28848 6.10352e-05 4.81061 2.96067 4.81061 6.59975C4.81061 6.69116 4.81363 6.7828 4.81813 6.87436C1.97334 8.00477 9.5111e-06 10.4415 9.5111e-06 13.2591C9.5111e-06 14.8382 0.603224 16.3534 1.70994 17.5811L0.147553 19.3667C-0.00651087 19.5428 -0.0434066 19.7927 0.0533255 20.0058C0.150018 20.2189 0.362367 20.3558 0.596385 20.3558H8.98512C9.05148 20.3558 9.26049 20.3179 9.30319 20.3139C11.2705 20.1324 13.0941 19.3601 14.4643 18.1229C15.911 16.8166 16.7671 15.0675 16.7363 13.1597H19.7593C20.2677 13.1597 20.543 12.5614 20.2121 12.1753ZM9.1044 19.134C9.05228 19.1383 8.87201 19.1538 8.83607 19.163H1.91064L2.97004 17.9523C3.18076 17.7115 3.16386 17.3473 2.93175 17.1271C1.81033 16.0627 1.19272 14.6891 1.19272 13.2591C1.19272 10.0263 4.4205 7.39496 8.38875 7.39496C12.3347 7.39496 15.545 10.0256 15.545 13.2591C15.545 16.2823 12.7287 18.8379 9.1044 19.134ZM16.599 11.9671C15.8794 8.6493 12.4382 6.20225 8.38875 6.20225C7.5609 6.20225 6.76092 6.30415 6.005 6.49296C6.07433 3.56066 8.98946 1.19285 12.5633 1.19285C16.2023 1.19285 19.1629 3.61839 19.1629 6.59979C19.1629 7.87508 18.6043 9.11208 17.5901 10.0829C17.3613 10.3019 17.3436 10.6614 17.5496 10.9018L18.4626 11.9671H16.599Z" fill="#0866FF"/>
<path d="M4.81088 11.967C4.15323 11.967 3.61816 12.502 3.61816 13.1597C3.61816 13.8173 4.15323 14.3524 4.81088 14.3524C5.46852 14.3524 6.00359 13.8173 6.00359 13.1597C6.00359 12.502 5.46856 11.967 4.81088 11.967Z" fill="#0866FF"/>
<path d="M8.389 11.967C7.73136 11.967 7.19629 12.502 7.19629 13.1597C7.19629 13.8173 7.73136 14.3524 8.389 14.3524C9.04664 14.3524 9.58171 13.8173 9.58171 13.1597C9.58171 12.502 9.04668 11.967 8.389 11.967Z" fill="#0866FF"/>
<path d="M11.9671 11.967C11.3095 11.967 10.7744 12.502 10.7744 13.1597C10.7744 13.8173 11.3095 14.3524 11.9671 14.3524C12.6248 14.3524 13.1598 13.8173 13.1598 13.1597C13.1598 12.502 12.6248 11.967 11.9671 11.967Z" fill="#0866FF"/>
</svg>
