<svg width="27" height="18" viewBox="0 0 27 18" fill="none" xmlns="http://www.w3.org/2000/svg">
<path d="M26.5639 10.2193C25.9028 9.14597 24.9616 8.24676 23.8419 7.61906C23.531 7.44473 23.2078 7.29341 22.8758 7.1641C22.9318 7.11551 22.9868 7.06573 23.0406 7.01377C24.7046 5.4119 24.7046 2.80531 23.0406 1.20344C21.3768 -0.398634 18.6694 -0.398634 17.0056 1.20344C16.2321 1.94795 15.8187 2.90983 15.7645 3.88678C15.0921 3.47982 14.3137 3.26086 13.5 3.26086C12.6872 3.26086 11.9097 3.47942 11.2378 3.88539C11.1818 2.87195 10.7457 1.92653 9.99441 1.20344C9.18836 0.427391 8.11679 0 6.97683 0C5.83707 0 4.76529 0.427391 3.95944 1.20344C3.15339 1.97948 2.70948 3.01117 2.70948 4.1087C2.70948 5.20604 3.15339 6.23792 3.95944 7.01377C4.013 7.06554 4.06821 7.11551 4.12424 7.1641C3.79218 7.29341 3.46898 7.44473 3.15813 7.61906C2.03836 8.24676 1.09717 9.14597 0.436143 10.2193C-0.137135 11.1504 -0.145786 12.2704 0.413278 13.215C0.977904 14.1693 1.99489 14.7391 3.13341 14.7391H6.53518C6.48121 15.3297 6.61448 15.9319 6.93645 16.4759C7.50108 17.4302 8.51806 18 9.65659 18H17.3436C18.4821 18 19.4989 17.4302 20.0638 16.4759C20.3855 15.9319 20.5188 15.3297 20.4648 14.7391H23.8666C25.0051 14.7391 26.0221 14.1693 26.5867 13.215C27.1458 12.2704 27.1371 11.1504 26.5639 10.2193ZM25.1536 12.4288C24.886 12.8812 24.4048 13.1511 23.8666 13.1511H19.8244C19.1811 12.223 18.3219 11.4424 17.3187 10.8799C17.0079 10.7058 16.6849 10.5543 16.3528 10.425C16.4086 10.3764 16.4638 10.3266 16.5176 10.2748C16.9716 9.83773 17.3107 9.3193 17.5204 8.75368C18.2945 8.40681 19.1473 8.21721 20.0232 8.21721C22.1144 8.21721 24.0771 9.29471 25.145 11.0291C25.4124 11.463 25.4154 11.9864 25.1536 12.4288ZM18.6218 14.2899C18.8892 14.7241 18.8925 15.2474 18.6305 15.6899C18.3629 16.1421 17.8819 16.4122 17.3434 16.4122H9.65659C9.11812 16.4122 8.63692 16.1421 8.36934 15.6899C8.10752 15.2474 8.11082 14.7241 8.37799 14.2899C9.44606 12.5556 11.4086 11.4781 13.5 11.4781C15.5914 11.4781 17.5539 12.5556 18.6218 14.2899ZM1.84637 12.429C1.58435 11.9864 1.58764 11.463 1.85502 11.0291C2.92289 9.29471 4.88538 8.21721 6.97683 8.21721C7.8525 8.21721 8.70531 8.40681 9.47964 8.75368C9.68934 9.31911 10.0284 9.83753 10.4824 10.2748C10.5362 10.3264 10.5912 10.3764 10.6472 10.425C10.3151 10.5543 9.99215 10.7058 9.6811 10.8799C8.67812 11.4424 7.81892 12.223 7.1754 13.1511H3.13341C2.59515 13.1511 2.11395 12.8812 1.84637 12.429ZM5.12557 5.89105C4.63119 5.41487 4.35886 4.78182 4.35886 4.1087C4.35886 3.43539 4.63119 2.80234 5.12557 2.32616C5.62016 1.85018 6.27748 1.58799 6.97683 1.58799C7.67617 1.58799 8.3337 1.85018 8.82829 2.32616C9.32267 2.80234 9.59499 3.43539 9.59499 4.1087C9.59499 4.78182 9.32267 5.41487 8.82829 5.89105C8.3337 6.36703 7.67617 6.62942 6.97683 6.62942C6.27748 6.62942 5.62016 6.36703 5.12557 5.89105ZM20.023 1.58918C20.6935 1.58918 21.364 1.83471 21.8744 2.32616C22.8951 3.30906 22.8951 4.90815 21.8744 5.89105C20.8535 6.87395 19.1926 6.87375 18.1717 5.89105C17.151 4.90815 17.151 3.30906 18.1717 2.32616C18.6822 1.83491 19.3527 1.58918 20.023 1.58918ZM15.3513 5.58722C15.8458 6.0632 16.1182 6.69625 16.1182 7.36957C16.1182 8.04288 15.8458 8.67574 15.3513 9.15192C14.8569 9.6281 14.1993 9.89028 13.5 9.89028C12.8007 9.89028 12.1431 9.6281 11.6487 9.15192C11.1542 8.67574 10.8818 8.04288 10.8818 7.36957C10.8818 6.69625 11.1542 6.0632 11.6487 5.58722C12.1431 5.11104 12.8007 4.84885 13.5 4.84885C14.1993 4.84885 14.8569 5.11104 15.3513 5.58722Z" fill="#0866FF"/>
</svg>
