<svg width="25" height="23" viewBox="0 0 25 23" fill="none" xmlns="http://www.w3.org/2000/svg">
<path d="M21.5436 0H19.2837V2.25981C19.2837 2.71178 18.9071 3.01308 18.5305 3.01308C18.1538 3.01308 17.7772 2.71178 17.7772 2.25981V0H5.72486V2.25981C5.72486 2.71178 5.34823 3.01308 4.97159 3.01308C4.59495 3.01308 4.21832 2.71178 4.21832 2.25981V0H1.9585C0.828598 0 0 0.979252 0 2.25981V4.97159H24.1047V2.25981C24.1047 0.979252 22.7488 0 21.5436 0ZM0 6.55346V20.3383C0 21.6942 0.828598 22.5981 2.03383 22.5981H21.6189C22.8241 22.5981 24.18 21.6189 24.18 20.3383V6.55346H0ZM6.70411 19.2084H4.89626C4.59495 19.2084 4.29365 18.9824 4.29365 18.6058V16.7226C4.29365 16.4213 4.51963 16.12 4.89626 16.12H6.77944C7.08075 16.12 7.38206 16.346 7.38206 16.7226V18.6058C7.30673 18.9824 7.08075 19.2084 6.70411 19.2084ZM6.70411 12.429H4.89626C4.59495 12.429 4.29365 12.203 4.29365 11.8264V9.94318C4.29365 9.64187 4.51963 9.34056 4.89626 9.34056H6.77944C7.08075 9.34056 7.38206 9.56654 7.38206 9.94318V11.8264C7.30673 12.203 7.08075 12.429 6.70411 12.429ZM12.7303 19.2084H10.8471C10.5458 19.2084 10.2445 18.9824 10.2445 18.6058V16.7226C10.2445 16.4213 10.4705 16.12 10.8471 16.12H12.7303C13.0316 16.12 13.3329 16.346 13.3329 16.7226V18.6058C13.3329 18.9824 13.1069 19.2084 12.7303 19.2084ZM12.7303 12.429H10.8471C10.5458 12.429 10.2445 12.203 10.2445 11.8264V9.94318C10.2445 9.64187 10.4705 9.34056 10.8471 9.34056H12.7303C13.0316 9.34056 13.3329 9.56654 13.3329 9.94318V11.8264C13.3329 12.203 13.1069 12.429 12.7303 12.429ZM18.7565 19.2084H16.8733C16.572 19.2084 16.2707 18.9824 16.2707 18.6058V16.7226C16.2707 16.4213 16.4966 16.12 16.8733 16.12H18.7565C19.0578 16.12 19.3591 16.346 19.3591 16.7226V18.6058C19.3591 18.9824 19.1331 19.2084 18.7565 19.2084ZM18.7565 12.429H16.8733C16.572 12.429 16.2707 12.203 16.2707 11.8264V9.94318C16.2707 9.64187 16.4966 9.34056 16.8733 9.34056H18.7565C19.0578 9.34056 19.3591 9.56654 19.3591 9.94318V11.8264C19.3591 12.203 19.1331 12.429 18.7565 12.429Z" fill="#0866FF"/>
</svg>
