<svg width="23" height="20" viewBox="0 0 23 20" fill="none" xmlns="http://www.w3.org/2000/svg">
<path d="M6.19006 4.05968V2.09365C6.19006 1.31117 6.83028 0.670959 7.61275 0.670959H15.0108C15.7933 0.670959 16.4335 1.31117 16.4335 2.09365V4.05968" stroke="white" stroke-width="1.34194" stroke-miterlimit="22.9256" stroke-linecap="round" stroke-linejoin="round"/>
<path d="M21.0695 10.4176V17.9567C21.0695 18.6851 20.4734 19.2812 19.745 19.2812H2.87866C2.15027 19.2812 1.55408 18.6852 1.55408 17.9567V10.4618" stroke="white" stroke-width="1.34194" stroke-miterlimit="22.9256" stroke-linecap="round" stroke-linejoin="round"/>
<path d="M9.5457 12.6474C4.87484 12.3803 0.671021 11.0446 0.671021 8.64038V5.50567C0.671021 4.77614 1.26602 4.18109 1.9956 4.18109H20.628C21.3576 4.18109 21.9526 4.77618 21.9526 5.50567V8.64038C21.9526 11.0597 17.6957 12.397 12.9896 12.6523" stroke="white" stroke-width="1.34194" stroke-miterlimit="22.9256" stroke-linecap="round" stroke-linejoin="round"/>
<path fill-rule="evenodd" clip-rule="evenodd" d="M9.67822 11.3338H12.9455V12.8571C12.9455 13.6949 12.26 14.3803 11.4223 14.3803H11.2015C10.3637 14.3803 9.67822 13.6949 9.67822 12.8571V11.3338Z" stroke="white" stroke-width="1.34194" stroke-miterlimit="22.9256" stroke-linecap="round" stroke-linejoin="round"/>
</svg>
