<svg width="25" height="19" viewBox="0 0 25 19" fill="none" xmlns="http://www.w3.org/2000/svg">
<path d="M4.05558 6.08334C5.73545 6.08334 7.09725 4.72154 7.09725 3.04167C7.09725 1.3618 5.73545 0 4.05558 0C2.37572 0 1.01392 1.3618 1.01392 3.04167C1.01392 4.72154 2.37572 6.08334 4.05558 6.08334Z" fill="#0866FF"/>
<path d="M7.39126 8.18208C6.37077 8.81887 5.52913 9.70488 4.94557 10.7567C4.36201 11.8085 4.05573 12.9916 4.05556 14.1944H2.02778C1.49047 14.1928 0.975631 13.9787 0.595695 13.5987C0.21576 13.2188 0.00160471 12.704 0 12.1667L0 10.1389C0.00240707 9.33292 0.323641 8.56066 0.893543 7.99076C1.46345 7.42085 2.23571 7.09962 3.04167 7.09721H5.06945C5.51208 7.09821 5.94917 7.19581 6.35018 7.38318C6.7512 7.57056 7.10649 7.8432 7.39126 8.18208Z" fill="#0866FF"/>
<path d="M20.2778 6.08334C21.9576 6.08334 23.3194 4.72154 23.3194 3.04167C23.3194 1.3618 21.9576 0 20.2778 0C18.5979 0 17.2361 1.3618 17.2361 3.04167C17.2361 4.72154 18.5979 6.08334 20.2778 6.08334Z" fill="#0866FF"/>
<path d="M24.3334 10.1389V12.1667C24.3318 12.704 24.1176 13.2188 23.7377 13.5987C23.3578 13.9787 22.8429 14.1928 22.3056 14.1944H20.2778C20.2777 12.9916 19.9714 11.8085 19.3878 10.7567C18.8043 9.70488 17.9626 8.81887 16.9421 8.18208C17.2269 7.8432 17.5822 7.57056 17.9832 7.38318C18.3842 7.19581 18.8213 7.09821 19.2639 7.09721H21.2917C22.0977 7.09962 22.8699 7.42085 23.4399 7.99076C24.0098 8.56066 24.331 9.33292 24.3334 10.1389Z" fill="#0866FF"/>
<path d="M12.1666 8.11112C14.4065 8.11112 16.2222 6.29538 16.2222 4.05556C16.2222 1.81573 14.4065 0 12.1666 0C9.92682 0 8.11108 1.81573 8.11108 4.05556C8.11108 6.29538 9.92682 8.11112 12.1666 8.11112Z" fill="#0866FF"/>
<path d="M18.2502 14.1944V15.2083C18.2478 16.0143 17.9265 16.7866 17.3566 17.3565C16.7867 17.9264 16.0145 18.2476 15.2085 18.25H9.12516C8.3192 18.2476 7.54694 17.9264 6.97704 17.3565C6.40714 16.7866 6.0859 16.0143 6.0835 15.2083V14.1944C6.0835 12.8499 6.6176 11.5605 7.5683 10.6098C8.51901 9.6591 9.80844 9.125 11.1529 9.125H13.1807C14.5252 9.125 15.8147 9.6591 16.7654 10.6098C17.7161 11.5605 18.2502 12.8499 18.2502 14.1944Z" fill="#0866FF"/>
</svg>
