<svg width="22" height="23" viewBox="0 0 22 23" fill="none" xmlns="http://www.w3.org/2000/svg">
<path fill-rule="evenodd" clip-rule="evenodd" d="M1.66086 5.81299V2.49128C1.66086 2.03289 2.03289 1.66086 2.49128 1.66086H5.81299C6.27139 1.66086 6.64342 1.28883 6.64342 0.830428C6.64342 0.37203 6.27139 0 5.81299 0H2.49128C1.11527 0 0 1.11527 0 2.49128V5.81299C0 6.27139 0.37203 6.64342 0.830428 6.64342C1.28883 6.64342 1.66086 6.27139 1.66086 5.81299Z" fill="#0866FF"/>
<path fill-rule="evenodd" clip-rule="evenodd" d="M0 16.2527V19.5744C0 20.9504 1.11527 22.0656 2.49128 22.0656H5.81299C6.27139 22.0656 6.64342 21.6936 6.64342 21.2352C6.64342 20.7768 6.27139 20.4048 5.81299 20.4048H2.49128C2.03289 20.4048 1.66086 20.0328 1.66086 19.5744V16.2527C1.66086 15.7943 1.28883 15.4222 0.830428 15.4222C0.37203 15.4222 0 15.7943 0 16.2527Z" fill="#0866FF"/>
<path fill-rule="evenodd" clip-rule="evenodd" d="M21.7692 5.81299V2.49128C21.7692 1.11527 20.6539 0 19.2779 0H15.9562C15.4978 0 15.1257 0.37203 15.1257 0.830428C15.1257 1.28883 15.4978 1.66086 15.9562 1.66086H19.2779C19.7363 1.66086 20.1083 2.03289 20.1083 2.49128V5.81299C20.1083 6.27139 20.4803 6.64342 20.9387 6.64342C21.3971 6.64342 21.7692 6.27139 21.7692 5.81299Z" fill="#0866FF"/>
<path fill-rule="evenodd" clip-rule="evenodd" d="M20.1083 16.2527V19.5744C20.1083 20.0328 19.7363 20.4048 19.2779 20.4048H15.9562C15.4978 20.4048 15.1257 20.7768 15.1257 21.2352C15.1257 21.6936 15.4978 22.0656 15.9562 22.0656H19.2779C20.6539 22.0656 21.7692 20.9504 21.7692 19.5744V16.2527C21.7692 15.7943 21.3971 15.4222 20.9387 15.4222C20.4803 15.4222 20.1083 15.7943 20.1083 16.2527Z" fill="#0866FF"/>
<path fill-rule="evenodd" clip-rule="evenodd" d="M18.2694 13.5067L3.32171 13.52V17.6762C3.32171 17.8963 3.40891 18.1081 3.56503 18.2634C3.72032 18.4195 3.93208 18.5067 4.15214 18.5067H17.439C17.659 18.5067 17.8708 18.4195 18.0261 18.2634C18.1822 18.1081 18.2694 17.8963 18.2694 17.6762V13.5067ZM3.32171 10.1982L0.829598 10.2024C0.3712 10.2032 0 10.5753 0 11.0337C0.000829985 11.4921 0.37286 11.8641 0.831258 11.8633L20.7615 11.8417C21.2199 11.8417 21.5911 11.4688 21.5911 11.0104C21.5903 10.552 21.2183 10.1808 20.7599 10.1808L18.2694 10.185V4.3894C18.2694 4.16934 18.1822 3.95758 18.0261 3.80229C17.8708 3.64617 17.659 3.55898 17.439 3.55898H4.15214C3.93208 3.55898 3.72032 3.64617 3.56503 3.80229C3.40891 3.95758 3.32171 4.16934 3.32171 4.3894V10.1982Z" fill="#0866FF"/>
</svg>
