<svg width="440" height="367" viewBox="0 0 440 367" fill="none" xmlns="http://www.w3.org/2000/svg">
<g opacity="0.16" clip-path="url(#clip0_1_55)">
<path opacity="0.04" d="M352.728 -187.575C617.035 -233.13 426.911 198.224 302.183 58.2382C240.123 -11.4123 114.859 126.162 72.3497 41.8713C29.802 -42.3669 103.051 -75.2845 148.582 -154.891C205.032 -254.496 282.739 -175.514 352.728 -187.575V-187.575Z" stroke="white" stroke-width="0.58867" stroke-miterlimit="10"/>
<path opacity="0.07" d="M352.056 -192.636C605.165 -226.459 435.3 187.757 304.311 61.7648C239.745 -0.334971 107.122 118.772 70.7998 34.5361C34.4137 -49.5865 102.08 -87.7087 150.166 -159.494C210.131 -249.019 283.113 -183.427 352.062 -192.639L352.056 -192.636Z" stroke="#FEFFFF" stroke-width="0.58867" stroke-miterlimit="10"/>
<path opacity="0.11" d="M351.387 -197.705C593.017 -220.177 443.965 177.344 306.438 65.2768C239.512 10.7426 99.3801 111.361 69.2434 27.1895C39.0098 -56.8199 100.926 -100.211 151.738 -164.105C215 -243.638 283.379 -191.383 351.384 -197.711L351.387 -197.705Z" stroke="#FEFEFF" stroke-width="0.58867" stroke-miterlimit="10"/>
<path opacity="0.15" d="M350.716 -202.766C580.588 -214.328 452.947 166.938 308.562 68.7978C239.432 21.8078 91.6394 103.966 67.6902 19.8486C43.6126 -64.0419 99.7327 -112.689 153.312 -168.71C219.82 -238.237 283.543 -199.396 350.712 -202.772L350.716 -202.766Z" stroke="#FDFEFF" stroke-width="0.58867" stroke-miterlimit="10"/>
<path opacity="0.19" d="M350.044 -207.827C567.907 -208.995 462.246 156.449 310.69 72.3245C239.511 32.819 83.8986 96.57 66.1437 12.5192C48.2186 -71.2581 98.5071 -125.157 154.897 -173.298C224.597 -232.803 283.63 -207.463 350.047 -207.821L350.044 -207.827Z" stroke="#FDFEFF" stroke-width="0.58867" stroke-miterlimit="10"/>
<path opacity="0.23" d="M349.369 -212.893C555.012 -204.232 471.826 145.758 312.805 75.843C239.72 43.7101 76.1489 89.1719 64.5758 5.17925C52.809 -78.4882 97.207 -137.636 156.463 -177.905C229.292 -227.406 283.612 -215.659 349.367 -212.884L349.369 -212.893Z" stroke="#FCFEFF" stroke-width="0.58867" stroke-miterlimit="10"/>
<path opacity="0.26" d="M348.698 -217.954C541.955 -200.093 481.653 134.796 314.929 79.364C240.05 54.4696 68.3991 81.7737 63.0226 -2.16163C57.4118 -85.7102 95.8755 -150.142 158.038 -182.51C233.932 -222.038 283.534 -223.974 348.692 -217.951L348.698 -217.954Z" stroke="#FCFEFF" stroke-width="0.58867" stroke-miterlimit="10"/>
<path opacity="0.3" d="M348.023 -223.021C528.796 -196.618 491.626 123.491 317.05 82.8792C240.445 65.0625 60.6551 74.3722 61.4662 -9.50824C62.0079 -92.9436 94.494 -162.695 159.609 -187.121C238.521 -216.732 283.401 -232.462 348.014 -223.023L348.023 -223.021Z" stroke="#FCFEFF" stroke-width="0.58867" stroke-miterlimit="10"/>
<path opacity="0.34" d="M347.351 -228.082C515.63 -193.817 501.656 111.81 319.178 86.4059C240.866 75.5031 52.9144 66.9765 59.9106 -16.8401C66.6082 -100.157 93.095 -175.291 161.187 -191.721C243.086 -211.48 283.263 -241.13 347.351 -228.082V-228.082Z" stroke="#FBFDFF" stroke-width="0.58867" stroke-miterlimit="10"/>
<path opacity="0.38" d="M346.676 -233.148C502.545 -191.696 511.637 99.7527 321.299 89.9211C241.266 85.7882 45.1703 59.575 58.3574 -24.1809C71.2133 -107.387 91.6917 -187.961 162.762 -196.326C247.646 -206.317 283.142 -250.045 346.676 -233.148Z" stroke="#FBFDFF" stroke-width="0.58867" stroke-miterlimit="10"/>
<path opacity="0.41" d="M346.005 -238.209C489.655 -190.213 521.492 87.3722 323.423 93.4421C241.603 95.9499 37.4263 52.1736 56.8043 -31.5218C75.8161 -114.609 90.3086 -200.689 164.337 -200.931C252.232 -201.215 283.107 -259.223 346.005 -238.209Z" stroke="#FAFDFF" stroke-width="0.58867" stroke-miterlimit="10"/>
<path opacity="0.45" d="M345.33 -243.276C477.08 -189.308 531.165 74.7157 325.548 96.963C241.863 106.019 29.6856 44.7778 55.2511 -38.8627C80.4155 -121.837 88.9581 -213.466 165.918 -205.539C256.862 -196.169 283.23 -268.72 345.336 -243.279L345.33 -243.276Z" stroke="#FAFDFF" stroke-width="0.58867" stroke-miterlimit="10"/>
<path opacity="0.49" d="M344.658 -248.336C464.957 -188.862 540.631 61.8589 327.672 100.484C242.036 116.016 21.9415 37.3764 53.6922 -46.2002C85.0125 -129.056 87.6477 -226.266 167.487 -210.141C261.528 -191.151 283.583 -278.533 344.655 -248.342L344.658 -248.336Z" stroke="#F9FDFF" stroke-width="0.58867" stroke-miterlimit="10"/>
<path opacity="0.53" d="M343.983 -253.403C453.403 -188.753 549.869 48.8591 329.793 103.999C242.108 125.972 14.1918 29.9782 52.1358 -53.5468C89.6143 -136.293 86.3805 -239.083 169.058 -214.752C266.247 -186.149 284.265 -288.689 343.98 -253.409L343.983 -253.403Z" stroke="#F9FCFF" stroke-width="0.58867" stroke-miterlimit="10"/>
<path opacity="0.56" d="M343.312 -258.464C442.538 -188.782 558.905 35.7859 331.921 107.526C242.097 135.915 6.45108 22.5825 50.5892 -60.8762C94.2204 -143.509 85.1495 -251.891 170.649 -219.343C271.026 -181.135 285.394 -299.14 343.321 -258.461L343.312 -258.464Z" stroke="#F8FCFF" stroke-width="0.58867" stroke-miterlimit="10"/>
<path opacity="0.6" d="M342.64 -263.524C432.441 -188.752 567.749 22.6857 334.045 111.047C242.003 145.845 -1.29293 15.181 49.0304 -68.2138C98.8174 -150.727 83.9422 -264.697 172.218 -223.945C275.82 -176.122 287.007 -309.848 342.644 -263.519L342.64 -263.524Z" stroke="#F8FCFF" stroke-width="0.58867" stroke-miterlimit="10"/>
<path d="M393.03 87.5765C419.958 494.356 -102.389 41.9091 107.711 -70.6747C212.922 -127.059 38.6834 -347.606 151.063 -386.381C263.442 -425.156 284.76 -304.36 386.437 -213.628C513.416 -100.318 386.071 -17.5441 393.027 87.5708L393.03 87.5765Z" stroke="#FFFFFA" stroke-width="0.58867" stroke-miterlimit="10"/>
<g style="mix-blend-mode:hard-light" opacity="0.95">
<path d="M399.415 88.4091C413.183 476.215 -90.7318 57.1712 103.004 -68.9322C199.262 -131.586 49.1055 -355.887 160.407 -385.985C271.654 -416.15 300.61 -301.707 391.885 -209.794C506.177 -95.5211 395.774 -13.9636 399.409 88.4124L399.415 88.4091Z" stroke="#FFFFFA" stroke-width="0.58867" stroke-miterlimit="10"/>
</g>
<g style="mix-blend-mode:hard-light" opacity="0.9">
<path d="M405.794 89.245C406.795 457.804 -79.3273 72.8154 98.2998 -67.184C185.505 -135.913 59.5219 -364.164 169.757 -385.592C279.863 -407.151 316.122 -298.767 397.345 -205.966C498.525 -90.3565 405.53 -10.4898 405.8 89.2417L405.794 89.245Z" stroke="#FFFFFB" stroke-width="0.58867" stroke-miterlimit="10"/>
</g>
<g style="mix-blend-mode:hard-light" opacity="0.85">
<path d="M412.176 90.0718C400.865 439.144 -68.0766 88.9064 93.5957 -65.4359C171.712 -140.012 69.9383 -372.441 179.098 -385.201C288.069 -398.156 331.782 -296.02 402.787 -202.142C491.048 -85.445 415.324 -7.12186 412.176 90.0718V90.0718Z" stroke="#FFFFFB" stroke-width="0.58867" stroke-miterlimit="10"/>
</g>
<g style="mix-blend-mode:hard-light" opacity="0.8">
<path d="M418.561 90.9043C395.462 420.233 -56.8428 105.51 88.8939 -63.6968C157.931 -143.852 80.3547 -380.718 188.443 -384.804C296.279 -389.157 347.439 -293.317 408.241 -198.311C483.586 -80.5728 425.21 -3.84521 418.561 90.9043Z" stroke="#FFFFFB" stroke-width="0.58867" stroke-miterlimit="10"/>
</g>
<g style="mix-blend-mode:hard-light" opacity="0.75">
<path d="M424.94 91.7402C390.676 401.095 -45.4701 122.605 84.1898 -61.9486C144.253 -147.446 90.7768 -388.999 197.787 -384.408C304.482 -380.153 363.112 -290.653 413.689 -194.476C476.12 -75.7596 435.179 -0.662254 424.943 91.7459L424.94 91.7402Z" stroke="#FFFFFC" stroke-width="0.58867" stroke-miterlimit="10"/>
</g>
<g style="mix-blend-mode:hard-light" opacity="0.7">
<path d="M431.325 92.5728C386.577 381.774 -33.8049 140.141 79.4856 -60.2004C130.73 -150.825 101.193 -397.276 207.134 -384.021C312.697 -371.157 378.796 -288.049 419.14 -190.651C468.692 -71.0136 445.278 2.41527 431.325 92.5728V92.5728Z" stroke="#FFFFFC" stroke-width="0.58867" stroke-miterlimit="10"/>
</g>
<g style="mix-blend-mode:hard-light" opacity="0.65">
<path d="M437.704 93.4087C383.254 362.318 -21.7206 158.007 74.7782 -58.458C117.4 -154.057 111.61 -405.553 216.479 -383.624C320.906 -362.157 394.528 -285.481 424.59 -186.825C461.313 -66.3269 455.529 5.41257 437.71 93.4054L437.704 93.4087Z" stroke="#FFFFFC" stroke-width="0.58867" stroke-miterlimit="10"/>
</g>
<g style="mix-blend-mode:hard-light" opacity="0.6">
<path d="M444.089 94.2413C380.762 342.808 -9.14894 176.055 70.074 -56.7098C104.278 -157.203 122.026 -413.83 225.823 -383.228C329.115 -353.157 410.303 -282.944 430.039 -182.99C453.995 -61.6675 465.965 8.37214 444.089 94.2413Z" stroke="#FFFFFD" stroke-width="0.58867" stroke-miterlimit="10"/>
</g>
<g style="mix-blend-mode:hard-light" opacity="0.55">
<path d="M450.473 95.0738C379.157 323.327 3.90877 194.167 65.3699 -54.9617C91.3594 -160.329 132.448 -422.11 235.164 -382.837C337.315 -344.16 426.144 -280.439 435.489 -179.165C446.758 -57.0397 476.644 11.3051 450.473 95.0738Z" stroke="#FFFFFD" stroke-width="0.58867" stroke-miterlimit="10"/>
</g>
<g style="mix-blend-mode:hard-light" opacity="0.5">
<path d="M456.853 95.9097C378.452 304.005 17.4274 212.217 60.6624 -53.2192C78.628 -163.487 142.864 -430.388 244.509 -382.441C345.525 -335.16 442.054 -277.919 440.938 -175.33C439.596 -52.4015 487.604 14.2891 456.853 95.9097V95.9097Z" stroke="#FFFFFD" stroke-width="0.58867" stroke-miterlimit="10"/>
</g>
<g style="mix-blend-mode:hard-light" opacity="0.45">
<path d="M463.237 96.7422C378.636 284.994 31.3428 230.123 55.9583 -51.471C66.0314 -166.715 153.281 -438.665 253.859 -382.048C353.74 -326.163 458.036 -275.381 446.388 -171.504C432.52 -47.7449 498.903 17.3828 463.237 96.7422V96.7422Z" stroke="#FFFFFD" stroke-width="0.58867" stroke-miterlimit="10"/>
</g>
<g style="mix-blend-mode:hard-light" opacity="0.4">
<path d="M469.622 97.5748C379.642 266.443 45.5752 247.838 51.2598 -49.7262C53.5508 -170.033 163.697 -446.942 263.2 -381.657C361.94 -317.166 474.058 -272.812 451.839 -167.679C425.495 -43.0411 510.589 20.6867 469.619 97.5691L469.622 97.5748Z" stroke="#FFFFFE" stroke-width="0.58867" stroke-miterlimit="10"/>
</g>
<g style="mix-blend-mode:hard-light" opacity="0.35">
<path d="M476.001 98.4107C381.325 248.562 60.0312 265.332 46.5466 -47.9804C41.1534 -173.445 174.119 -455.222 272.545 -381.26C370.152 -308.16 490.122 -270.184 457.287 -163.844C418.512 -38.2777 522.697 24.3496 476.001 98.4107V98.4107Z" stroke="#FFFFFE" stroke-width="0.58867" stroke-miterlimit="10"/>
</g>
<g style="mix-blend-mode:hard-light" opacity="0.3">
<path d="M482.386 99.2432C383.491 231.53 74.6543 282.601 41.8425 -46.2323C28.8007 -176.951 184.536 -463.499 281.889 -380.864C378.361 -299.16 506.207 -267.506 462.741 -160.013C411.565 -33.4515 535.264 28.5171 482.386 99.2432V99.2432Z" stroke="#FFFFFE" stroke-width="0.58867" stroke-miterlimit="10"/>
</g>
<g style="mix-blend-mode:hard-light" opacity="0.25">
<path d="M488.765 100.079C385.844 215.549 89.3839 299.67 37.1384 -44.4841C16.4836 -180.554 194.955 -471.771 291.236 -380.477C386.567 -290.166 522.3 -264.788 468.189 -156.193C404.606 -28.5801 548.237 33.349 488.768 100.07L488.765 100.079Z" stroke="white" stroke-width="0.58867" stroke-miterlimit="10"/>
</g>
<g style="mix-blend-mode:hard-light" opacity="0.2">
<path d="M495.15 100.912C388.002 200.776 104.172 316.538 32.4308 -42.7417C4.17925 -184.24 205.378 -480.051 300.581 -380.08C394.777 -281.166 538.387 -262.028 473.637 -152.358C397.644 -23.6466 561.531 39.0399 495.147 100.906L495.15 100.912Z" stroke="white" stroke-width="0.58867" stroke-miterlimit="10"/>
</g>
<path opacity="0.2" d="M171.474 104.373C-207.595 282.65 -29.622 -424.045 182.947 -248.764C289.392 -160.991 415.925 -422.48 508.934 -320.785C601.944 -219.09 495.969 -152.404 458.76 -13.8575C412.289 159.169 269.434 58.301 171.47 104.367L171.474 104.373Z" stroke="white" stroke-width="0.58867" stroke-miterlimit="10"/>
<path opacity="0.21" d="M173.826 111.275C-193.076 268.796 -38.4602 -406.27 178.933 -252.969C287.055 -176.718 429.066 -414.78 513.182 -310.984C597.327 -207.281 501.267 -135.048 457.766 -6.80633C404.09 153.478 270.889 69.6076 173.832 111.271L173.826 111.275Z" stroke="white" stroke-width="0.58867" stroke-miterlimit="10"/>
<path opacity="0.23" d="M176.185 118.174C-178.069 255.27 -47.6919 -388.595 174.921 -257.183C284.524 -192.479 442.207 -407.081 517.423 -301.194C592.705 -195.482 506.077 -117.905 456.765 0.233444C395.29 147.524 272.473 80.9005 176.181 118.168L176.185 118.174Z" stroke="white" stroke-width="0.58867" stroke-miterlimit="10"/>
<path opacity="0.24" d="M178.534 125.07C-162.574 242.155 -57.3825 -370.921 170.903 -261.394C281.769 -208.202 455.339 -399.384 521.661 -291.395C588.079 -183.675 511.162 -100.708 455.762 7.28229C386.832 141.647 274.197 92.2354 178.528 125.074L178.534 125.07Z" stroke="white" stroke-width="0.58867" stroke-miterlimit="10"/>
<path opacity="0.25" d="M180.892 131.969C-146.548 229.55 -67.524 -353.118 166.9 -265.606C278.811 -223.83 468.492 -391.692 525.911 -281.603C583.465 -171.875 516.304 -83.5438 454.77 14.3244C378.437 135.734 276.087 103.596 180.892 131.969V131.969Z" stroke="white" stroke-width="0.58867" stroke-miterlimit="10"/>
<path opacity="0.26" d="M183.241 138.866C-130.021 217.547 -78.1083 -335.05 162.882 -269.817C275.625 -239.297 481.624 -383.995 530.155 -271.807C578.849 -160.065 521.492 -66.3913 453.773 21.37C370.112 129.796 278.124 115.039 183.245 138.871L183.241 138.866Z" stroke="#FFFEFF" stroke-width="0.58867" stroke-miterlimit="10"/>
<path opacity="0.28" d="M185.6 145.764C-112.997 206.247 -89.0359 -316.587 158.87 -274.031C272.28 -254.564 494.768 -376.304 534.396 -262.018C574.226 -148.267 526.748 -49.2548 452.773 28.4097C361.866 123.851 280.301 126.577 185.591 145.762L185.6 145.764Z" stroke="#FFFEFF" stroke-width="0.58867" stroke-miterlimit="10"/>
<path opacity="0.29" d="M187.952 152.667C-95.5347 195.746 -100.185 -297.622 154.858 -278.245C268.834 -269.583 507.906 -368.611 538.64 -252.222C569.607 -136.463 532.08 -32.0932 451.775 35.4552C353.716 117.941 282.637 138.274 187.949 152.661L187.952 152.667Z" stroke="#FFFEFF" stroke-width="0.58867" stroke-miterlimit="10"/>
<path opacity="0.3" d="M190.307 159.56C-77.7002 186.128 -111.408 -278.112 150.849 -282.454C265.359 -284.349 521.047 -360.912 542.89 -242.43C564.993 -124.662 537.491 -14.8863 450.784 42.4973C345.656 112.078 285.092 150.162 190.307 159.56V159.56Z" stroke="#FFFEFF" stroke-width="0.58867" stroke-miterlimit="10"/>
<path opacity="0.31" d="M192.66 166.462C-59.5875 177.453 -122.552 -258.053 146.837 -286.668C261.92 -298.893 534.191 -353.221 547.135 -232.635C560.377 -112.853 542.941 2.38933 449.792 49.5395C337.659 106.301 287.648 162.318 192.671 166.455L192.66 166.462Z" stroke="#FFFEFF" stroke-width="0.58867" stroke-miterlimit="10"/>
<path opacity="0.33" d="M195.015 173.355C-41.3479 169.765 -133.488 -237.504 142.819 -290.879C258.559 -313.237 547.323 -345.524 551.37 -222.842C555.748 -101.051 548.403 19.7501 448.785 56.5827C329.669 100.627 290.238 174.799 195.015 173.355V173.355Z" stroke="#FFFEFF" stroke-width="0.58867" stroke-miterlimit="10"/>
<path opacity="0.34" d="M197.373 180.254C-23.1379 163.069 -144.126 -216.556 138.81 -295.087C255.337 -327.432 560.464 -337.825 555.617 -213.04C551.132 -89.2417 553.879 37.2015 447.791 63.6338C321.694 95.0578 292.833 187.695 197.367 180.257L197.373 180.254Z" stroke="#FFFEFF" stroke-width="0.58867" stroke-miterlimit="10"/>
<path opacity="0.35" d="M199.726 187.156C-5.15516 157.328 -154.423 -195.309 134.798 -299.302C252.253 -341.533 573.608 -330.135 559.867 -203.248C546.518 -77.4411 559.329 54.7137 446.8 70.676C313.685 89.5621 295.323 201.072 199.731 187.153L199.726 187.156Z" stroke="#FFFEFF" stroke-width="0.58867" stroke-miterlimit="10"/>
<path opacity="0.36" d="M202.081 194.049C12.3756 152.442 -164.368 -173.862 130.786 -303.516C249.309 -355.577 586.746 -322.441 564.108 -193.458C541.895 -65.6429 564.726 72.2794 445.799 77.7158C305.611 84.1265 297.597 214.999 202.081 194.049V194.049Z" stroke="#FFFDFF" stroke-width="0.58867" stroke-miterlimit="10"/>
<path opacity="0.38" d="M204.433 200.952C29.1965 148.255 -173.976 -152.32 126.774 -307.73C246.505 -369.602 599.889 -314.751 568.352 -183.663C537.273 -53.83 570.078 89.8863 444.802 84.7612C297.481 78.7386 299.514 229.537 204.433 200.952V200.952Z" stroke="#FFFDFF" stroke-width="0.58867" stroke-miterlimit="10"/>
<path opacity="0.39" d="M206.788 207.845C45.0789 144.556 -183.279 -130.74 122.759 -311.935C243.829 -383.618 613.025 -307.048 572.591 -173.864C532.648 -42.0228 575.372 107.511 443.799 91.81C289.287 73.3724 300.915 244.7 206.786 207.854L206.788 207.845Z" stroke="#FFFDFF" stroke-width="0.58867" stroke-miterlimit="10"/>
<path opacity="0.4" d="M209.141 214.747C59.7898 141.062 -192.327 -109.178 118.747 -316.149C241.264 -397.667 626.163 -299.355 576.841 -164.072C528.034 -30.2222 580.636 125.138 442.807 98.8523C281.046 68.0031 301.668 260.406 209.141 214.747V214.747Z" stroke="#FFFDFF" stroke-width="0.58867" stroke-miterlimit="10"/>
</g>
<defs>
<clipPath id="clip0_1_55">
<rect width="674.249" height="645.422" fill="white" transform="translate(-188.374 -192.678) rotate(-30)"/>
</clipPath>
</defs>
</svg>
